PathFileType	4	(X/Y/Z)	/Users/itak/Documents/Research/Walk-IL/dataset/trc/00511_00183.trc
DataRate	CameraRate	NumFrames	NumMarkers	Units	OrigDataRate	OrigDataStartFrame	OrigNumFrames
100.000000	100.000000	4	53	mm	100.000000	289	386
Frame#	Time	RPSI			LPSI			L3			STRN			T10			C7			CLAV			RBAK			LBAK			LSHO			LUPA			LAEL			LAOL			LWTS			LWPS			LFRA			LIFD			LHPS			LHTS			RSHO			RUPA			RAEL			RAOL			RWTS			RWPS			RFRA			RIFD			RHTS			RHPS			RBHD			LFHD			RFHD			LBHD			LHIP			RHIP			RASI			LASI			LKNE			LTHI			LANK			LTIP			LTOE			LMT1			LMT5			LHEE			RKNE			RTHI			RANK			RTIP			RTOE			RMT1			RMT5			RHEE			
		X1	Y1	Z1	X2	Y2	Z2	X3	Y3	Z3	X4	Y4	Z4	X5	Y5	Z5	X6	Y6	Z6	X7	Y7	Z7	X8	Y8	Z8	X9	Y9	Z9	X10	Y10	Z10	X11	Y11	Z11	X12	Y12	Z12	X13	Y13	Z13	X14	Y14	Z14	X15	Y15	Z15	X16	Y16	Z16	X17	Y17	Z17	X18	Y18	Z18	X19	Y19	Z19	X20	Y20	Z20	X21	Y21	Z21	X22	Y22	Z22	X23	Y23	Z23	X24	Y24	Z24	X25	Y25	Z25	X26	Y26	Z26	X27	Y27	Z27	X28	Y28	Z28	X29	Y29	Z29	X30	Y30	Z30	X31	Y31	Z31	X32	Y32	Z32	X33	Y33	Z33	X34	Y34	Z34	X35	Y35	Z35	X36	Y36	Z36	X37	Y37	Z37	X38	Y38	Z38	X39	Y39	Z39	X40	Y40	Z40	X41	Y41	Z41	X42	Y42	Z42	X43	Y43	Z43	X44	Y44	Z44	X45	Y45	Z45	X46	Y46	Z46	X47	Y47	Z47	X48	Y48	Z48	X49	Y49	Z49	X50	Y50	Z50	X51	Y51	Z51	X52	Y52	Z52	X53	Y53	Z53	

290	2.89	1130.304565429688	948.089599609375	1034.998291015625	1203.19482421875	956.2417602539062	935.0819702148438	1170.935791015625	1034.030151367188	979.67822265625	1352.795043945312	1200.178100585938	1108.121948242188	1161.984985351562	1138.61279296875	975.3043212890625	1198.999755859375	1369.138549804688	997.944580078125	1323.143310546875	1294.797119140625	1085.618408203125	1108.642578125	1249.948974609375	1041.1787109375	1226.22021484375	1312.286865234375	913.3495483398438	1346.265380859375	1355.492919921875	905.0839233398438	1364.661743164062	1229.818237304688	846.1861572265625	1379.063354492188	1039.562622070312	840.0226440429688	1282.147705078125	1010.338012695312	839.2936401367188	1475.25048828125	983.31103515625	1012.632751464844	1462.830322265625	893.4965209960938	987.752685546875	1415.301513671875	997.6195068359375	884.1211547851562	1486.061157226562	900.4122924804688	1133.866455078125	1490.944213867188	876.0451049804688	1035.50244140625	1515.419799804688	931.5304565429688	1061.92041015625	1157.576049804688	1366.73779296875	1150.375854492188	1103.111328125	1305.85986328125	1179.118530273438	1036.385375976562	1050.659545898438	1195.950927734375	1014.059814453125	1032.409057617188	1135.87841796875	1188.418212890625	899.626220703125	1247.936401367188	1111.187744140625	857.54150390625	1269.891357421875	1042.526000976562	1001.477783203125	1208.99951171875	1230.502075195312	747.3621826171875	1264.14892578125	1218.016967773438	812.2152099609375	1285.297119140625	1150.890747070312	792.4513549804688	1285.860717773438	1174.111328125	1513.798095703125	1070.690673828125	1351.0595703125	1598.288696289062	1028.257934570312	1270.108154296875	1596.248168945312	1125.70703125	1264.957153320312	1508.527709960938	940.504638671875	1373.611450195312	900.9541015625	892.8468017578125	1153.7802734375	852.4434204101562	1199.14794921875	1265.887329101562	913.8754272460938	1201.383056640625	1402.261352539062	940.593017578125	1004.148010253906	1405.569458007812	481.590087890625	973.5614624023438	1417.310302734375	641.0439453125	947.3377075195312	1266.9775390625	59.35723876953125	890.8452758789062	1369.526611328125	332.2462463378906	943.0020141601562	1382.57470703125	24.35937309265137	1059.242919921875	1306.440795898438	40.89625549316406	1035.221801757812	1358.54638671875	33.65546035766602	948.9677124023438	1193.549682617188	65.49755859375	912.700439453125	1266.099975585938	478.7746276855469	1197.398193359375	1197.677734375	729.9760131835938	1221.9345703125	1225.110473632812	44.80406188964844	1142.260986328125	1287.070678710938	332.3609008789062	1190.66943359375	1419.486206054688	27.54417037963867	1206.378295898438	1380.337768554688	34.70997619628906	1141.1123046875	1315.249755859375	35.30155563354492	1212.891967773438	1202.281616210938	37.3715934753418	1076.096313476562	
291	2.9	1133.869018554688	947.5421142578125	1039.118530273438	1206.62109375	955.7100830078125	938.9320068359375	1174.152954101562	1033.339233398438	983.7247314453125	1356.397705078125	1199.475463867188	1111.616088867188	1165.091796875	1138.000244140625	979.6129760742188	1201.970703125	1368.555908203125	1002.234680175781	1326.601806640625	1294.064208984375	1089.273193359375	1112.04931640625	1249.16845703125	1046.01513671875	1228.875854492188	1311.801879882812	917.5963745117188	1348.835693359375	1355.211791992188	908.7210693359375	1366.294677734375	1229.797607421875	849.1373291015625	1379.873168945312	1039.295654296875	841.1556396484375	1282.770385742188	1010.785034179688	841.7689208984375	1478.64208984375	980.3010864257812	1011.336608886719	1464.5205078125	890.7640380859375	986.3359985351562	1416.484375	996.4856567382812	884.2110595703125	1490.117065429688	897.015380859375	1132.135864257812	1493.169799804688	872.7305908203125	1033.594116210938	1518.923950195312	927.7792358398438	1059.797485351562	1161.38330078125	1365.949951171875	1154.931274414062	1107.350463867188	1304.854736328125	1184.303466796875	1042.254516601562	1049.339965820312	1203.415893554688	1019.080200195312	1030.79541015625	1143.687377929688	1195.024658203125	898.7138671875	1254.065673828125	1118.008422851562	856.9923706054688	1277.231201171875	1048.652954101562	1000.257995605469	1216.547119140625	1236.736694335938	746.1580200195312	1270.8232421875	1224.761962890625	811.3019409179688	1291.3232421875	1157.677612304688	792.0587158203125	1293.270751953125	1177.419189453125	1513.255615234375	1074.937622070312	1354.301025390625	1597.59521484375	1032.088256835938	1273.548828125	1595.7001953125	1129.667602539062	1267.951782226562	1507.838745117188	944.6023559570312	1376.86767578125	900.277099609375	896.3737182617188	1157.62939453125	851.8839111328125	1203.224365234375	1269.802734375	913.04736328125	1205.302856445312	1405.646606445312	939.5232543945312	1007.385375976562	1407.719360351562	480.664794921875	975.6842041015625	1420.218994140625	640.2597045898438	950.2067260742188	1266.975952148438	59.40983581542969	890.9318237304688	1370.534057617188	331.9029541015625	944.2968139648438	1382.734985351562	24.3016300201416	1059.330200195312	1306.544189453125	40.96783065795898	1035.306030273438	1358.619995117188	33.7476921081543	949.0081176757812	1193.565307617188	65.60784149169922	912.8474731445312	1268.697631835938	477.5833129882812	1200.220092773438	1201.217651367188	729.0586547851562	1225.4677734375	1224.900634765625	44.4380989074707	1142.718872070312	1288.953002929688	331.1007385253906	1191.866943359375	1419.482543945312	27.47230339050293	1206.430297851562	1380.00537109375	34.44331359863281	1141.173461914062	1315.12939453125	35.03307342529297	1213.05859375	1201.707763671875	36.88447189331055	1076.614868164062	
292	2.91	1137.292602539062	947.182373046875	1043.11376953125	1209.932495117188	955.3392333984375	942.7005004882812	1177.255126953125	1032.7265625	987.6248779296875	1359.965209960938	1198.777099609375	1114.89111328125	1168.059204101562	1137.440551757812	983.7886962890625	1204.882934570312	1368.006591796875	1006.405639648438	1330.025268554688	1293.354858398438	1092.76025390625	1115.359252929688	1248.45947265625	1050.796508789062	1231.415283203125	1311.375122070312	921.7390747070312	1351.283325195312	1354.983154296875	912.21044921875	1367.892456054688	1229.833862304688	851.9666748046875	1380.720703125	1039.1337890625	842.273193359375	1283.473388671875	1011.268920898438	844.1427612304688	1481.976684570312	977.5230712890625	1010.033935546875	1466.324340820312	888.2548828125	984.8806762695312	1417.687622070312	995.5366821289062	884.2699584960938	1493.867431640625	893.8121948242188	1130.4013671875	1495.425537109375	869.6655883789062	1031.72021484375	1522.287353515625	924.2919921875	1057.76806640625	1165.197387695312	1365.162841796875	1159.391967773438	1111.595458984375	1303.891357421875	1189.444702148438	1048.146240234375	1048.07373046875	1210.671997070312	1024.203979492188	1029.203247070312	1151.296997070312	1201.633178710938	897.8134765625	1260.057495117188	1124.871337890625	856.5057373046875	1284.449829101562	1054.826049804688	999.1024169921875	1223.91796875	1242.99169921875	745.0067138671875	1277.635620117188	1231.5693359375	810.6135864257812	1297.494750976562	1164.525756835938	791.7976684570312	1300.7236328125	1180.650024414062	1512.725830078125	1079.109619140625	1357.463623046875	1596.92822265625	1035.880249023438	1276.905395507812	1595.1142578125	1133.567749023438	1270.870361328125	1507.220092773438	948.6104736328125	1379.961669921875	899.5711669921875	899.8433837890625	1161.303833007812	851.3668823242188	1207.019165039062	1273.500610351562	912.194091796875	1209.107543945312	1408.935302734375	938.4561767578125	1010.695251464844	1409.834350585938	479.7135620117188	977.8124389648438	1422.936157226562	639.4368896484375	952.95361328125	1266.998168945312	59.49176788330078	891.05419921875	1371.5654296875	331.53515625	945.6642456054688	1382.917114257812	24.22060585021973	1059.455688476562	1306.657470703125	41.06497573852539	1035.42919921875	1358.693237304688	33.86143112182617	949.0811157226562	1193.58642578125	65.65773773193359	913.0584716796875	1271.020141601562	476.4119567871094	1202.900146484375	1204.511840820312	728.1898193359375	1228.889770507812	1224.686279296875	44.06929016113281	1143.122680664062	1290.574951171875	329.8723754882812	1192.973510742188	1419.489624023438	27.41739463806152	1206.457641601562	1379.710205078125	34.16720581054688	1141.2001953125	1315.026733398438	34.79682922363281	1213.197631835938	1201.184204101562	36.35690307617188	1077.030395507812	
293	2.92	1140.58984375	947.0214233398438	1047.002319335938	1213.1171875	955.1475830078125	946.3880615234375	1180.259643554688	1032.20947265625	991.4021606445312	1363.498901367188	1198.1181640625	1117.952026367188	1170.906860351562	1136.970458984375	987.823486328125	1207.736328125	1367.514526367188	1010.447692871094	1333.411865234375	1292.698364257812	1096.073364257812	1118.57421875	1247.838500976562	1055.5	1233.847045898438	1311.02099609375	925.7664794921875	1353.616333007812	1354.809448242188	915.538818359375	1369.464233398438	1229.917358398438	854.674072265625	1381.609619140625	1039.087768554688	843.391357421875	1284.264282226562	1011.775573730469	846.417236328125	1485.191284179688	975.0245361328125	1008.802734375	1468.259521484375	886.0227661132812	983.387939453125	1418.91796875	994.8029174804688	884.3372802734375	1497.291381835938	890.780029296875	1128.681640625	1497.73876953125	866.8921508789062	1029.872192382812	1525.484375	921.1138916015625	1055.881958007812	1169.008422851562	1364.413208007812	1163.7431640625	1115.831909179688	1302.992919921875	1194.509887695312	1054.02587890625	1046.868408203125	1217.690673828125	1029.392333984375	1027.658569335938	1158.683227539062	1208.224731445312	896.9595336914062	1265.8740234375	1131.753540039062	856.108642578125	1291.522705078125	1061.009643554688	998.0180053710938	1231.079467773438	1249.330810546875	744.03125	1284.552490234375	1238.454711914062	810.1892700195312	1303.7724609375	1171.438598632812	791.68603515625	1308.169189453125	1183.792114257812	1512.244384765625	1083.202026367188	1360.551879882812	1596.3173828125	1039.629150390625	1280.180419921875	1594.51513671875	1137.406005859375	1273.712280273438	1506.708984375	952.51416015625	1382.896728515625	898.8698120117188	903.2550048828125	1164.786499023438	850.9198608398438	1210.550903320312	1276.991088867188	911.3419189453125	1212.790771484375	1412.126098632812	937.4197998046875	1014.066223144531	1411.852416992188	478.760009765625	979.894287109375	1425.439331054688	638.6032104492188	955.5550537109375	1267.02294921875	59.61729049682617	891.22119140625	1372.579956054688	331.1593627929688	947.0623779296875	1383.117919921875	24.12258911132812	1059.6171875	1306.777099609375	41.1876106262207	1035.592041015625	1358.758544921875	34.00333023071289	949.1866455078125	1193.594482421875	65.65608215332031	913.3463134765625	1272.99267578125	475.2944030761719	1205.34033203125	1207.562622070312	727.3929443359375	1232.182250976562	1224.496826171875	43.71012496948242	1143.400146484375	1291.906127929688	328.6926574707031	1193.962768554688	1419.510375976562	27.37439346313477	1206.458740234375	1379.484130859375	33.87728500366211	1141.176635742188	1314.954345703125	34.60819244384766	1213.273559570312	1200.780395507812	35.78021621704102	1077.290893554688	
